<svg width="30" height="30" viewBox="0 0 30 30" fill="none" xmlns="http://www.w3.org/2000/svg">
<path d="M10 2.5V6.25" stroke="#4F5152" stroke-width="1.5" stroke-miterlimit="10" stroke-linecap="round" stroke-linejoin="round"/>
<path d="M20 2.5V6.25" stroke="#4F5152" stroke-width="1.5" stroke-miterlimit="10" stroke-linecap="round" stroke-linejoin="round"/>
<path d="M4.375 11.3625H25.625" stroke="#4F5152" stroke-width="1.5" stroke-miterlimit="10" stroke-linecap="round" stroke-linejoin="round"/>
<path d="M24.0125 19.7126L19.5875 24.1376C19.4125 24.3126 19.25 24.6376 19.2125 24.8751L18.975 26.5626C18.8875 27.1751 19.3125 27.6001 19.925 27.5126L21.6125 27.2751C21.85 27.2376 22.1875 27.0751 22.35 26.9001L26.775 22.4751C27.5375 21.7126 27.9 20.8251 26.775 19.7001C25.6625 18.5876 24.775 18.9501 24.0125 19.7126Z" stroke="#4F5152" stroke-width="1.5" stroke-miterlimit="10" stroke-linecap="round" stroke-linejoin="round"/>
<path d="M23.375 20.3501C23.75 21.7001 24.8 22.7501 26.15 23.1251" stroke="#4F5152" stroke-width="1.5" stroke-miterlimit="10" stroke-linecap="round" stroke-linejoin="round"/>
<path d="M15 27.5H10C5.625 27.5 3.75 25 3.75 21.25V10.625C3.75 6.875 5.625 4.375 10 4.375H20C24.375 4.375 26.25 6.875 26.25 10.625V15" stroke="#4F5152" stroke-width="1.5" stroke-miterlimit="10" stroke-linecap="round" stroke-linejoin="round"/>
<path d="M14.9944 17.125H15.0056" stroke="#4F5152" stroke-width="2" stroke-linecap="round" stroke-linejoin="round"/>
<path d="M10.3679 17.125H10.3791" stroke="#4F5152" stroke-width="2" stroke-linecap="round" stroke-linejoin="round"/>
<path d="M10.3679 20.875H10.3791" stroke="#4F5152" stroke-width="2" stroke-linecap="round" stroke-linejoin="round"/>
</svg>
