<svg width="31" height="30" viewBox="0 0 31 30" fill="none" xmlns="http://www.w3.org/2000/svg">
<g clip-path="url(#clip0_360_3111)">
<path d="M10.1769 2.5V6.25" stroke="#4F5152" stroke-width="1.5" stroke-miterlimit="10" stroke-linecap="round" stroke-linejoin="round"/>
<path d="M20.1769 2.5V6.25" stroke="#4F5152" stroke-width="1.5" stroke-miterlimit="10" stroke-linecap="round" stroke-linejoin="round"/>
<path d="M4.55188 11.3625H25.8019" stroke="#4F5152" stroke-width="1.5" stroke-miterlimit="10" stroke-linecap="round" stroke-linejoin="round"/>
<path d="M24.1894 19.7125L19.7644 24.1375C19.5894 24.3125 19.4269 24.6375 19.3894 24.875L19.1519 26.5625C19.0644 27.175 19.4894 27.6 20.1019 27.5125L21.7894 27.275C22.0269 27.2375 22.3644 27.075 22.5269 26.9L26.9519 22.475C27.7144 21.7125 28.0769 20.825 26.9519 19.7C25.8394 18.5875 24.9519 18.95 24.1894 19.7125Z" stroke="#4F5152" stroke-width="1.5" stroke-miterlimit="10" stroke-linecap="round" stroke-linejoin="round"/>
<path d="M23.5519 20.35C23.9269 21.7 24.9769 22.75 26.3269 23.125" stroke="#4F5152" stroke-width="1.5" stroke-miterlimit="10" stroke-linecap="round" stroke-linejoin="round"/>
<path d="M15.1769 27.5H10.1769C5.80188 27.5 3.92688 25 3.92688 21.25V10.625C3.92688 6.875 5.80188 4.375 10.1769 4.375H20.1769C24.5519 4.375 26.4269 6.875 26.4269 10.625V15" stroke="#4F5152" stroke-width="1.5" stroke-miterlimit="10" stroke-linecap="round" stroke-linejoin="round"/>
<path d="M15.1712 17.125H15.1825" stroke="#4F5152" stroke-width="2" stroke-linecap="round" stroke-linejoin="round"/>
<path d="M10.5448 17.125H10.556" stroke="#4F5152" stroke-width="2" stroke-linecap="round" stroke-linejoin="round"/>
<path d="M10.5448 20.875H10.556" stroke="#4F5152" stroke-width="2" stroke-linecap="round" stroke-linejoin="round"/>
</g>
<defs>
<clipPath id="clip0_360_3111">
<rect width="30" height="30" fill="white" transform="translate(0.17688)"/>
</clipPath>
</defs>
</svg>
