<svg width="31" height="30" viewBox="0 0 31 30" fill="none" xmlns="http://www.w3.org/2000/svg">
<g clip-path="url(#clip0_360_3111)">
<path d="M21.1144 4.45V2.5C21.1144 1.9875 20.6894 1.5625 20.1769 1.5625C19.6644 1.5625 19.2394 1.9875 19.2394 2.5V4.375H11.1144V2.5C11.1144 1.9875 10.6894 1.5625 10.1769 1.5625C9.66436 1.5625 9.23936 1.9875 9.23936 2.5V4.45C5.86436 4.7625 4.22686 6.775 3.97686 9.7625C3.95186 10.125 4.25186 10.425 4.60186 10.425H25.7519C26.1144 10.425 26.4144 10.1125 26.3769 9.7625C26.1269 6.775 24.4894 4.7625 21.1144 4.45Z" fill="#4F5152"/>
<path fill-rule="evenodd" clip-rule="evenodd" d="M25.1769 12.3H5.17688C4.48938 12.3 3.92688 12.8625 3.92688 13.55V21.25C3.92688 25 5.80188 27.5 10.1769 27.5L18.9269 27.5001V24.3751L25.1769 18.7501H26.4269V13.55C26.4269 12.8625 25.8644 12.3 25.1769 12.3ZM15.1712 16.1251C14.6189 16.1251 14.1712 16.5728 14.1712 17.1251C14.1712 17.6774 14.6189 18.1251 15.1712 18.1251H15.1825C15.7347 18.1251 16.1825 17.6774 16.1825 17.1251C16.1825 16.5728 15.7347 16.1251 15.1825 16.1251H15.1712ZM9.54477 17.1251C9.54477 16.5728 9.99249 16.1251 10.5448 16.1251H10.556C11.1083 16.1251 11.556 16.5728 11.556 17.1251C11.556 17.6774 11.1083 18.1251 10.556 18.1251H10.5448C9.99249 18.1251 9.54477 17.6774 9.54477 17.1251ZM10.5448 19.8751C9.99249 19.8751 9.54477 20.3228 9.54477 20.8751C9.54477 21.4274 9.99249 21.8751 10.5448 21.8751H10.556C11.1083 21.8751 11.556 21.4274 11.556 20.8751C11.556 20.3228 11.1083 19.8751 10.556 19.8751H10.5448Z" fill="#4F5152"/>
<path d="M26.7383 22.2375L26.1133 22.875H26.1008L22.3133 26.6625C22.1508 26.825 21.8133 27 21.5758 27.025L19.8883 27.275C19.2758 27.3625 18.8508 26.925 18.9383 26.325L19.1758 24.625C19.2133 24.3875 19.3758 24.0625 19.5383 23.8875L23.3383 20.1L23.9633 19.4625C24.3758 19.05 24.8383 18.75 25.3383 18.75C25.7633 18.75 26.2258 18.95 26.7383 19.4625C27.8633 20.5875 27.5008 21.475 26.7383 22.2375Z" stroke="#4F5152" stroke-width="1.5"/>
<path d="M26.1133 22.875C25.0633 22.25 23.9633 21.2046 23.3383 20.1" stroke="#4F5152" stroke-width="1.5" stroke-linecap="round"/>
</g>
<defs>
<clipPath id="clip0_360_3111">
<rect width="30" height="30" fill="white" transform="translate(0.17688)"/>
</clipPath>
</defs>
</svg>
