<svg width="80" height="80" viewBox="0 0 80 80" fill="none" xmlns="http://www.w3.org/2000/svg">
<path d="M31.9831 57.9492C33.9716 55.2503 37.1573 53.6391 40.5049 53.6391C43.853 53.6391 47.0387 55.2503 49.0267 57.9492C49.5897 58.7135 49.4265 59.7893 48.6624 60.352C47.898 60.9155 46.8226 60.7518 46.2596 59.9877C44.8966 58.1373 42.799 57.0759 40.5049 57.0759C38.211 57.0759 36.1136 58.1372 34.7502 59.9877C34.4133 60.445 33.8927 60.687 33.3653 60.687C33.0113 60.687 32.6542 60.5779 32.3474 60.3518C31.5831 59.7889 31.4199 58.7131 31.9831 57.9492ZM25.0256 75.0028H20.6748V12.8115H59.3249V48.5953C59.3249 49.5444 60.0943 50.3138 61.0434 50.3138C61.9926 50.3138 62.7619 49.5444 62.7619 48.5953V12.8115H70.8997V17.1623C70.8997 18.1115 71.669 18.8808 72.6182 18.8808C73.5673 18.8808 74.3367 18.1115 74.3367 17.1623V16.6046C74.6042 16.7767 74.9227 16.8765 75.2646 16.8765C76.2138 16.8765 76.9831 16.1072 76.9831 15.1581V12.8115H77.5012C78.4503 12.8115 79.2197 12.0422 79.2197 11.093C79.2197 10.1439 78.4503 9.37456 77.5012 9.37456H76.9831V7.02839C76.9831 6.07925 76.2138 5.30991 75.2646 5.30991C74.9227 5.30991 74.6044 5.40977 74.3367 5.58179V5.0241C74.3367 4.07496 73.5673 3.30563 72.6182 3.30563C71.669 3.30563 70.8997 4.07496 70.8997 5.0241V9.37475H62.7619V1.71848C62.7619 0.769335 61.9926 0 61.0434 0C60.0943 0 59.3249 0.769335 59.3249 1.71848V9.37456H20.6748V1.71848C20.6748 0.769335 19.9054 0 18.9563 0C18.0071 0 17.2378 0.769335 17.2378 1.71848V9.37456H9.10036V5.02392C9.10036 4.07478 8.33102 3.30545 7.38188 3.30545C6.43274 3.30545 5.6634 4.07478 5.6634 5.02392V5.58161C5.39586 5.40959 5.07731 5.30973 4.73543 5.30973C3.78628 5.30973 3.01695 6.07907 3.01695 7.02821V9.37456H2.49887C1.54973 9.37456 0.780396 10.1439 0.780396 11.093C0.780396 12.0422 1.54973 12.8115 2.49887 12.8115H3.01695V15.1581C3.01695 16.1072 3.78628 16.8765 4.73543 16.8765C5.07731 16.8765 5.39568 16.7767 5.6634 16.6046V17.1623C5.6634 18.1115 6.43274 18.8808 7.38188 18.8808C8.33102 18.8808 9.10036 18.1115 9.10036 17.1623V12.8115H17.2378V75.0028H12.8868C11.9377 75.0028 11.1683 75.7722 11.1683 76.7213C11.1683 77.6705 11.9377 78.4398 12.8868 78.4398H18.9134C18.9277 78.4402 18.9418 78.4403 18.9561 78.4403C18.9704 78.4403 18.9845 78.4402 18.9988 78.4398H25.0252C25.9744 78.4398 26.7437 77.6705 26.7437 76.7213C26.7437 75.7722 25.9747 75.0028 25.0256 75.0028ZM76.2167 67.7377C76.2896 67.4269 76.3283 67.1033 76.3283 66.7706V64.336C76.3283 62.104 74.5876 60.2706 72.3922 60.1219C72.4445 59.8569 72.4718 59.583 72.4718 59.3032V56.8689C72.4718 54.5398 70.577 52.6447 68.2478 52.6447H58.0019C57.0528 52.6447 56.2834 53.4141 56.2834 54.3632C56.2834 55.3124 57.0528 56.0817 58.0019 56.0817H68.2478C68.6744 56.0817 69.0349 56.4422 69.0349 56.8689V59.3032C69.0349 59.7297 68.6745 60.0904 68.2478 60.0904C68.1541 60.0904 60.5941 60.1123 60.5941 60.1123C59.6449 60.1123 58.8756 60.8817 58.8756 61.8308C58.8756 62.78 59.6449 63.5493 60.5941 63.5493H72.1037C72.5304 63.5493 72.8911 63.9096 72.8911 64.3362V66.7708C72.8911 67.1973 72.5306 67.558 72.1037 67.558H60.0514C59.1023 67.558 58.3329 68.3274 58.3329 69.2765C58.3329 70.2257 59.1023 70.995 60.0514 70.995H74.9955C75.422 70.995 75.7825 71.3553 75.7825 71.7821V74.2165C75.7825 74.6431 75.4222 75.0037 74.9955 75.0037H55.9419C54.9927 75.0037 54.2234 75.7731 54.2234 76.7222C54.2234 77.6714 54.9927 78.4407 55.9419 78.4407H74.9958C77.325 78.4407 79.2198 76.5457 79.2198 74.2165V71.7817C79.2197 69.8771 77.9523 68.2626 76.2167 67.7377ZM45.9355 64.2184C45.9355 67.2129 43.4994 69.649 40.5049 69.649C37.5106 69.649 35.0745 67.2129 35.0745 64.2184C35.0745 61.2239 37.5106 58.7878 40.5049 58.7878C43.4994 58.7878 45.9355 61.2239 45.9355 64.2184ZM42.4985 64.2184C42.4985 63.1191 41.6044 62.2248 40.5049 62.2248C39.4058 62.2248 38.5115 63.1189 38.5115 64.2184C38.5115 65.3179 39.4056 66.212 40.5049 66.212C41.6042 66.2118 42.4985 65.3177 42.4985 64.2184ZM56.2865 64.2184C56.2865 72.9201 49.2069 79.9998 40.5049 80C31.8033 79.9998 24.7235 72.9202 24.7231 64.2184C24.7235 55.5166 31.8033 48.437 40.5049 48.4368C49.2069 48.437 56.2865 55.5166 56.2865 64.2184ZM52.8495 64.2184C52.8495 57.4116 47.3117 51.874 40.5049 51.8738C33.6983 51.874 28.1604 57.4118 28.1601 64.2184C28.1604 71.025 33.6983 76.5629 40.5049 76.563C47.3117 76.5629 52.8495 71.0252 52.8495 64.2184ZM48.6621 68.0848C47.8978 67.5222 46.822 67.6854 46.2593 68.4495C44.9165 70.2725 42.7655 71.3609 40.5049 71.3609C38.2447 71.3609 36.0937 70.2725 34.7509 68.4495C34.1881 67.6854 33.1124 67.5222 32.3481 68.0848C31.5838 68.6476 31.4207 69.7235 31.9834 70.4876C33.9712 73.1865 37.1569 74.7977 40.5047 74.7977C43.853 74.7977 47.0385 73.1865 49.0264 70.4876C49.5895 69.7233 49.4261 68.6476 48.6621 68.0848Z" fill="#4F5152"/>
</svg>
