<svg width="40" height="40" viewBox="0 0 40 40" fill="none" xmlns="http://www.w3.org/2000/svg">
<path d="M7.39998 29.0611C6.95838 29.535 6.71797 30.1618 6.72939 30.8095C6.74082 31.4572 7.00319 32.0751 7.46124 32.5332C7.91928 32.9912 8.53723 33.2536 9.1849 33.265C9.83257 33.2764 10.4594 33.036 10.9333 32.5944L19.1333 24.3944L15.6 20.8611L7.39998 29.0611Z" fill="white"/>
<path d="M27.8889 13.8667L31.4611 12.0167L33.3333 8.40558L31.5889 6.66113L27.9778 8.53336L26.1278 12.1L21.7833 16.45L23.5444 18.2167L27.8889 13.8667Z" fill="white"/>
<path d="M28.6722 23.3333H28.3333C27.7428 23.3367 27.1576 23.4458 26.6056 23.6555L16.3611 13.3833C16.5639 12.8337 16.6673 12.2524 16.6667 11.6666L16.6333 11.3333C16.587 10.5217 16.3413 9.73412 15.918 9.04017C15.4947 8.34621 14.9068 7.76733 14.2063 7.35477C13.5059 6.94222 12.7146 6.70871 11.9024 6.67493C11.0902 6.64114 10.2823 6.80812 9.55001 7.16108L12.8833 10.4944C13.0508 10.665 13.1797 10.8696 13.2611 11.0944C13.3541 11.3486 13.3837 11.6215 13.3476 11.8897C13.3114 12.1579 13.2104 12.4133 13.0534 12.6337C12.8965 12.8541 12.6882 13.033 12.4465 13.1549C12.2049 13.2768 11.9373 13.338 11.6667 13.3333C11.4761 13.3274 11.288 13.2879 11.1111 13.2166C10.8879 13.1346 10.6838 13.008 10.5111 12.8444L7.17778 9.51108C6.82147 10.2432 6.65147 11.052 6.68288 11.8656C6.71429 12.6792 6.94614 13.4725 7.35783 14.1749C7.76953 14.8774 8.34832 15.4673 9.04283 15.8923C9.73733 16.3173 10.526 16.5642 11.3389 16.6111L11.6667 16.6666C12.2572 16.6633 12.8424 16.5541 13.3945 16.3444L23.6667 26.5778C23.4499 27.1378 23.3369 27.7327 23.3333 28.3333L23.3667 28.6666C23.459 29.9224 24.0218 31.0972 24.9425 31.9561C25.8632 32.8151 27.0742 33.295 28.3333 33.3C29.0752 33.2993 29.807 33.1282 30.4722 32.8L27.1389 29.4666C26.983 29.2997 26.8621 29.1033 26.7833 28.8889C26.695 28.6392 26.6675 28.372 26.703 28.1096C26.7386 27.8471 26.8361 27.5969 26.9877 27.3797C27.1392 27.1625 27.3403 26.9845 27.5743 26.8605C27.8083 26.7365 28.0685 26.67 28.3333 26.6666C28.5239 26.6726 28.712 26.7121 28.8889 26.7833C29.1155 26.8583 29.3211 26.9858 29.4889 27.1555L32.8222 30.4889C33.1905 29.7554 33.3703 28.9418 33.3456 28.1214C33.3209 27.3011 33.0923 26.4998 32.6805 25.7898C32.2688 25.0799 31.6868 24.4836 30.987 24.0547C30.2873 23.6258 29.4917 23.3779 28.6722 23.3333Z" fill="white"/>
</svg>
