<svg width="31" height="30" viewBox="0 0 31 30" fill="none" xmlns="http://www.w3.org/2000/svg">
<g clip-path="url(#clip0_819_3051)">
<path d="M15.9017 18.75C17.9728 18.75 19.6517 17.0711 19.6517 15C19.6517 12.9289 17.9728 11.25 15.9017 11.25C13.8307 11.25 12.1517 12.9289 12.1517 15C12.1517 17.0711 13.8307 18.75 15.9017 18.75Z" stroke="white" stroke-width="3" stroke-linecap="round" stroke-linejoin="round"/>
<path d="M25.1517 18.75C24.9853 19.127 24.9357 19.5452 25.0092 19.9507C25.0828 20.3562 25.2761 20.7304 25.5642 21.025L25.6392 21.1C25.8717 21.3322 26.0561 21.6079 26.1819 21.9114C26.3077 22.2149 26.3725 22.5402 26.3725 22.8688C26.3725 23.1973 26.3077 23.5226 26.1819 23.8261C26.0561 24.1296 25.8717 24.4053 25.6392 24.6375C25.4071 24.8699 25.1313 25.0543 24.8278 25.1801C24.5243 25.306 24.199 25.3707 23.8705 25.3707C23.5419 25.3707 23.2166 25.306 22.9131 25.1801C22.6096 25.0543 22.3339 24.8699 22.1017 24.6375L22.0267 24.5625C21.7321 24.2743 21.358 24.081 20.9525 24.0075C20.547 23.934 20.1288 23.9836 19.7517 24.15C19.382 24.3085 19.0667 24.5716 18.8446 24.9069C18.6225 25.2423 18.5033 25.6353 18.5017 26.0375V26.25C18.5017 26.913 18.2383 27.5489 17.7695 28.0178C17.3007 28.4866 16.6648 28.75 16.0017 28.75C15.3387 28.75 14.7028 28.4866 14.234 28.0178C13.7651 27.5489 13.5017 26.913 13.5017 26.25V26.1375C13.4921 25.7238 13.3581 25.3225 13.1174 24.9859C12.8766 24.6493 12.5402 24.3929 12.1517 24.25C11.7747 24.0836 11.3565 24.034 10.951 24.1075C10.5455 24.181 10.1713 24.3743 9.87673 24.6625L9.80173 24.7375C9.56955 24.9699 9.29383 25.1543 8.99033 25.2801C8.68684 25.406 8.36152 25.4707 8.03298 25.4707C7.70444 25.4707 7.37913 25.406 7.07563 25.2801C6.77214 25.1543 6.49642 24.9699 6.26423 24.7375C6.03179 24.5053 5.84739 24.2296 5.72158 23.9261C5.59577 23.6226 5.53102 23.2973 5.53102 22.9688C5.53102 22.6402 5.59577 22.3149 5.72158 22.0114C5.84739 21.7079 6.03179 21.4322 6.26423 21.2L6.33923 21.125C6.6274 20.8304 6.82072 20.4562 6.89424 20.0507C6.96776 19.6452 6.91813 19.227 6.75173 18.85C6.59328 18.4803 6.33018 18.165 5.99481 17.9429C5.65945 17.7208 5.26647 17.6016 4.86423 17.6H4.65173C3.98869 17.6 3.35281 17.3366 2.88397 16.8678C2.41513 16.3989 2.15173 15.763 2.15173 15.1C2.15173 14.437 2.41513 13.8011 2.88397 13.3322C3.35281 12.8634 3.98869 12.6 4.65173 12.6H4.76423C5.17798 12.5903 5.57924 12.4564 5.91586 12.2156C6.25248 11.9749 6.50888 11.6384 6.65173 11.25C6.81813 10.873 6.86776 10.4548 6.79424 10.0493C6.72072 9.64377 6.5274 9.2696 6.23923 8.975L6.16423 8.9C5.93179 8.66782 5.74739 8.3921 5.62158 8.0886C5.49577 7.78511 5.43102 7.45979 5.43102 7.13125C5.43102 6.80271 5.49577 6.47739 5.62158 6.1739C5.74739 5.8704 5.93179 5.59468 6.16423 5.3625C6.39642 5.13006 6.67214 4.94566 6.97563 4.81985C7.27913 4.69404 7.60444 4.62928 7.93298 4.62928C8.26152 4.62928 8.58684 4.69404 8.89033 4.81985C9.19383 4.94566 9.46955 5.13006 9.70173 5.3625L9.77673 5.4375C10.0713 5.72567 10.4455 5.91898 10.851 5.99251C11.2565 6.06603 11.6747 6.01639 12.0517 5.85H12.1517C12.5214 5.69155 12.8368 5.42844 13.0588 5.09308C13.2809 4.75772 13.4001 4.36473 13.4017 3.9625V3.75C13.4017 3.08696 13.6651 2.45107 14.134 1.98223C14.6028 1.51339 15.2387 1.25 15.9017 1.25C16.5648 1.25 17.2007 1.51339 17.6695 1.98223C18.1383 2.45107 18.4017 3.08696 18.4017 3.75V3.8625C18.4033 4.26473 18.5225 4.65772 18.7446 4.99308C18.9667 5.32844 19.282 5.59155 19.6517 5.75C20.0288 5.91639 20.447 5.96603 20.8525 5.89251C21.258 5.81898 21.6321 5.62567 21.9267 5.3375L22.0017 5.2625C22.2339 5.03006 22.5096 4.84566 22.8131 4.71985C23.1166 4.59404 23.4419 4.52928 23.7705 4.52928C24.099 4.52928 24.4243 4.59404 24.7278 4.71985C25.0313 4.84566 25.307 5.03006 25.5392 5.2625C25.7717 5.49468 25.9561 5.7704 26.0819 6.0739C26.2077 6.37739 26.2725 6.70271 26.2725 7.03125C26.2725 7.35979 26.2077 7.68511 26.0819 7.9886C25.9561 8.2921 25.7717 8.56782 25.5392 8.8L25.4642 8.875C25.1761 9.1696 24.9828 9.54377 24.9092 9.94926C24.8357 10.3548 24.8853 10.773 25.0517 11.15V11.25C25.2102 11.6197 25.4733 11.935 25.8087 12.1571C26.144 12.3792 26.537 12.4984 26.9392 12.5H27.1517C27.8148 12.5 28.4507 12.7634 28.9195 13.2322C29.3883 13.7011 29.6517 14.337 29.6517 15C29.6517 15.663 29.3883 16.2989 28.9195 16.7678C28.4507 17.2366 27.8148 17.5 27.1517 17.5H27.0392C26.637 17.5016 26.244 17.6208 25.9087 17.8429C25.5733 18.065 25.3102 18.3803 25.1517 18.75V18.75Z" stroke="white" stroke-width="3" stroke-linecap="round" stroke-linejoin="round"/>
</g>
<defs>
<clipPath id="clip0_819_3051">
<rect width="30" height="30" fill="white" transform="translate(0.901733)"/>
</clipPath>
</defs>
</svg>
