<svg width="30" height="32" viewBox="0 0 30 32" fill="none" xmlns="http://www.w3.org/2000/svg">
<path fill-rule="evenodd" clip-rule="evenodd" d="M1.59985 11.7043V20.4556C1.59985 23.6709 1.59985 23.6709 4.63322 25.7184L12.975 30.5415C14.2338 31.2695 16.2813 31.2695 17.525 30.5415L25.8668 25.7184C28.9002 23.6709 28.9002 23.6709 28.9002 20.4707V11.7043C28.9002 8.50409 28.9002 8.50409 25.8668 6.45657L17.525 1.63352C16.2813 0.905507 14.2338 0.905507 12.975 1.63352L4.63322 6.45657C1.59985 8.50409 1.59985 8.50409 1.59985 11.7043ZM15.25 20.6375C17.7629 20.6375 19.8001 18.6004 19.8001 16.0875C19.8001 13.5746 17.7629 11.5374 15.25 11.5374C12.7371 11.5374 10.7 13.5746 10.7 16.0875C10.7 18.6004 12.7371 20.6375 15.25 20.6375Z" fill="#4F5152" stroke="#4F5152" stroke-width="1.82002" stroke-linecap="round" stroke-linejoin="round"/>
</svg>
