<svg width="30" height="33" viewBox="0 0 30 33" fill="none" xmlns="http://www.w3.org/2000/svg">
<path fill-rule="evenodd" clip-rule="evenodd" d="M1.59985 11.9793V20.7306C1.59985 23.9459 1.59985 23.9459 4.63322 25.9934L12.975 30.8165C14.2338 31.5445 16.2813 31.5445 17.525 30.8165L25.8668 25.9934C28.9001 23.9459 28.9001 23.9459 28.9001 20.7457V11.9793C28.9001 8.77908 28.9001 8.77909 25.8668 6.73156L17.525 1.90851C16.2813 1.1805 14.2338 1.1805 12.975 1.90851L4.63322 6.73156C1.59985 8.77909 1.59985 8.77908 1.59985 11.9793ZM15.25 20.9125C17.7629 20.9125 19.8001 18.8754 19.8001 16.3625C19.8001 13.8496 17.7629 11.8124 15.25 11.8124C12.7371 11.8124 10.7 13.8496 10.7 16.3625C10.7 18.8754 12.7371 20.9125 15.25 20.9125Z" stroke="#4F5152" stroke-width="1.5" stroke-linecap="round" stroke-linejoin="round"/>
</svg>
