<svg width="36" height="32" viewBox="0 0 36 32" fill="none" xmlns="http://www.w3.org/2000/svg">
<path d="M25.5458 21.7806C25.2804 24.0362 22.8236 25.0976 21.3 25.0976C19.0445 25.0976 17.8667 24.6714 17.187 23.5055M12.6722 7.51793C12.5114 7.77252 11.701 7.7949 12.668 9.46739C13.1861 10.3634 14.2679 10.4127 15.1437 10.2922C16.0868 10.1624 16.7784 10.1511 17.9148 10.4533C18.8238 10.695 20.0523 10.2375 20.4411 9.96428C21.3261 11.1035 21.3164 11.315 22.0862 14.505C22.7019 17.057 23.1773 18.5027 24.113 19.0013C23.0782 18.6101 20.5935 16.8715 18.5138 16.8715C16.9682 16.8715 15.1204 18.5079 14.3874 19.3924M12.6722 7.51793C12.0592 7.41441 10.9176 6.66842 11.255 4.51259C11.6766 1.8178 12.0371 1.85416 15.5324 1.34442C19.0277 0.834675 18.1773 0.798864 20.5137 1.87208C22.8502 2.9453 23.9846 3.99219 27.9033 8.87988C31.1236 12.8966 32.3701 13.5848 33.4452 16.6181C34.2052 18.7626 34.0303 20.143 34.1945 20.7185C34.2822 21.0262 34.8367 22.2793 34.7577 22.6934C34.5397 23.835 34.5314 23.6542 33.3904 24.3787C32.0236 25.3957 31.9144 25.6284 28.9955 27.8839C25.5511 30.5455 18.3258 32.0048 13.2547 30.2031C11.7062 30.6665 4.09797 32.9416 1.60688 26.7186C0.336573 23.5453 1.00091 19.5588 4.16535 17.2837C6.93209 15.2946 11.3785 16.2211 14.3874 19.3924M12.6722 7.51793C12.9001 8.1238 13.6399 9.26851 14.7753 9.0004M32.1614 20.4634C32.1782 19.7859 32.0168 18.0414 31.2362 16.4827M14.3874 19.3924C14.8199 19.8483 15.2228 20.3505 15.5866 20.8971L14.3874 19.3924Z" stroke="#4F5152" stroke-width="1.5" stroke-linecap="round" stroke-linejoin="round"/>
<path d="M20.1059 15.8194C19.4756 15.5913 19.1512 15.3295 17.8843 15.3295C16.9429 15.3295 15.2452 16.4059 14.7987 16.9216" stroke="#4F5152" stroke-width="0.76" stroke-linecap="round" stroke-linejoin="round"/>
<path d="M19.3098 14.0639C18.8686 13.9119 18.6415 13.7373 17.7547 13.7373C17.0957 13.7373 15.9073 14.455 15.5948 14.7987" stroke="#4F5152" stroke-width="0.38" stroke-linecap="round" stroke-linejoin="round"/>
<path d="M18.7791 12.6555C18.464 12.5415 18.3018 12.4105 17.6683 12.4105C17.1976 12.4105 16.3488 12.9488 16.1255 13.2066" stroke="#4F5152" stroke-width="0.19" stroke-linecap="round" stroke-linejoin="round"/>
</svg>
