<svg width="132" height="118" viewBox="0 0 132 118" fill="none" xmlns="http://www.w3.org/2000/svg">
<path d="M4.66517 99.3926C-0.121929 87.434 2.3816 72.4112 14.3067 63.8377C24.733 56.3416 41.4891 59.8331 52.8282 71.7841C55.5905 68.4507 62.5539 62.2841 68.3782 62.2841C76.2157 62.2841 85.5792 68.836 89.4787 70.31C85.9527 68.4312 84.1612 62.9832 81.8406 53.3661C78.9399 41.3447 78.9765 40.5477 75.6414 36.2545C74.1761 37.2842 69.5467 39.0083 66.1208 38.0973C61.8385 36.9586 59.2323 37.0009 55.6781 37.4901C52.3777 37.9444 48.301 37.7584 46.3487 34.382C42.7044 28.0793 45.7584 27.9949 46.3643 27.0355C44.0544 26.6454 39.7524 23.8341 41.0236 15.71C42.6128 5.55475 43.9711 5.69179 57.143 3.77084C70.3148 1.84988 67.1102 1.71493 75.915 5.75931C84.7198 9.8037 88.9947 13.7489 103.762 32.168C115.898 47.3047 120.595 49.8984 124.647 61.3293C127.511 69.4105 126.852 74.6126 127.47 76.7815C127.801 77.941 129.891 82.6632 129.593 84.2237C128.772 88.5259 128.74 87.8445 124.44 90.5748C119.29 94.4075 118.878 95.2841 107.878 103.784C94.8983 113.814 67.67 119.313 48.5597 112.524C42.724 114.27 14.0528 122.844 4.66517 99.3926Z" fill="white"/>
<path d="M94.8782 80.7841C93.8782 89.2841 84.6196 93.2841 78.8782 93.2841C70.3782 93.2841 65.9396 91.6778 63.3782 87.2841M46.3643 27.0355C45.7584 27.9949 42.7044 28.0793 46.3487 34.382C48.301 37.7584 52.3777 37.9444 55.6781 37.4901C59.2323 37.0009 61.8385 36.9586 66.1208 38.0973C69.5467 39.0083 74.1761 37.2842 75.6414 36.2545C78.9765 40.5477 78.9399 41.3447 81.8406 53.3661C84.1612 62.9832 85.9527 68.4312 89.4787 70.31C85.5792 68.836 76.2157 62.2841 68.3782 62.2841C62.5539 62.2841 55.5905 68.4507 52.8282 71.7841M46.3643 27.0355C44.0544 26.6454 39.7524 23.8341 41.0236 15.71C42.6128 5.55475 43.9711 5.69179 57.143 3.77084C70.3148 1.84988 67.1102 1.71493 75.915 5.75931C84.7198 9.8037 88.9947 13.7489 103.762 32.168C115.898 47.3047 120.595 49.8984 124.647 61.3293C127.511 69.4105 126.852 74.6126 127.47 76.7815C127.801 77.941 129.891 82.6632 129.593 84.2237C128.772 88.5259 128.74 87.8445 124.44 90.5748C119.29 94.4075 118.878 95.2841 107.878 103.784C94.8983 113.814 67.67 119.313 48.5597 112.524C42.724 114.27 14.0528 122.844 4.66517 99.3926C-0.121929 87.434 2.3816 72.4112 14.3067 63.8377C24.733 56.3416 41.4891 59.8331 52.8282 71.7841M46.3643 27.0355C47.2234 29.3187 50.0114 33.6325 54.2898 32.6221M119.809 75.8199C119.872 73.267 119.264 66.6929 116.322 60.819M52.8282 71.7841C54.4582 73.5019 55.9761 75.3945 57.3473 77.4545L52.8282 71.7841Z" stroke="#880D1E" stroke-width="3" stroke-linecap="round" stroke-linejoin="round"/>
<path d="M74.3782 58.3191C72.0028 57.4597 70.7803 56.4729 66.0061 56.4729C62.4582 56.4729 56.0608 60.5296 54.3782 62.4729" stroke="white" stroke-width="2" stroke-linecap="round" stroke-linejoin="round"/>
<path d="M71.3782 51.7037C69.7154 51.1308 68.8597 50.4729 65.5177 50.4729C63.0342 50.4729 58.556 53.1774 57.3782 54.4729" stroke="white" stroke-linecap="round" stroke-linejoin="round"/>
<path d="M69.3782 46.396C68.1905 45.9663 67.5792 45.4729 65.1921 45.4729C63.4182 45.4729 60.2195 47.5012 59.3782 48.4729" stroke="white" stroke-width="0.5" stroke-linecap="round" stroke-linejoin="round"/>
</svg>
