<svg width="31" height="30" viewBox="0 0 31 30" fill="none" xmlns="http://www.w3.org/2000/svg">
<path d="M15.5 5.45011C15.5 6.07717 15.3765 6.69809 15.1365 7.27742C14.8966 7.85675 14.5448 8.38314 14.1014 8.82654C13.658 9.26994 13.1316 9.62167 12.5523 9.86163C11.973 10.1016 11.3521 10.2251 10.725 10.2251H8.3375C6.75716 10.2218 5.24249 9.59255 4.12502 8.47508C3.75348 8.10354 3.43591 7.6881 3.17738 7.24092C3.07257 7.05964 2.97746 6.82438 2.89239 6.55563C2.55617 5.49345 2.37676 3.9083 2.375 3.06641C9.8555 4.25391 21.1445 4.25391 28.625 3.06641C28.6232 3.9083 28.4438 5.49346 28.1076 6.55564C28.0225 6.82437 27.9274 7.05963 27.8226 7.24091C27.5641 7.68809 27.2465 8.10354 26.875 8.47508C25.7575 9.59255 24.2428 10.2218 22.6625 10.2251H20.275C19.0086 10.2251 17.7941 9.72203 16.8986 8.82654C16.0031 7.93106 15.5 6.71652 15.5 5.45011Z" fill="#3D2B3D"/>
<path d="M7.15 25.7374C5.76495 22.5116 4.95686 19.0677 4.7625 15.5625C4.7658 12.7073 4.2257 9.88376 3.17738 7.24077C2.94595 6.84048 2.76182 6.41478 2.62863 5.9724C2.82475 6.39004 3.00772 6.81304 3.17738 7.24077C3.43591 7.68794 3.75348 8.10339 4.12502 8.47493C5.24249 9.5924 6.75716 10.2216 8.3375 10.225H10.725C11.3521 10.225 11.973 10.1014 12.5523 9.86147C13.1316 9.62151 13.658 9.26979 14.1014 8.82639C14.5448 8.38299 14.8966 7.85659 15.1365 7.27726C15.3765 6.69793 15.5 6.07701 15.5 5.44995C15.5 6.71636 16.0031 7.9309 16.8986 8.82639C17.7941 9.72187 19.0086 10.225 20.275 10.225H22.6625C24.2428 10.2216 25.7575 9.5924 26.875 8.47493C27.2465 8.10338 27.5641 7.68793 27.8226 7.24076C27.9923 6.81304 28.1752 6.39004 28.3714 5.97241C28.2382 6.41479 28.0541 6.84048 27.8226 7.24076C26.7743 9.88375 26.2342 12.7073 26.2375 15.5625C26.0431 19.0677 25.2351 22.5116 23.85 25.7374C23.5494 27.103 20.8992 29.6353 15.5 28.8397C11.1243 29.5027 7.41952 27.0478 7.15 25.7374Z" fill="#3D2B3D"/>
<path d="M15.5 12.6125V13.8625C15.5 13.8708 15.5 13.8792 15.5 13.8875M8.3375 12.675L8.9875 14.625C9.14545 15.0996 9.44923 15.5122 9.8555 15.804C10.2618 16.0958 10.7498 16.2519 11.25 16.25H13.1125C13.4265 16.2516 13.7377 16.191 14.0281 16.0716C14.3185 15.9522 14.5824 15.7764 14.8044 15.5544C15.0264 15.3323 15.2022 15.0685 15.3216 14.7781C15.4379 14.4954 15.4984 14.193 15.5 13.8875M22.6625 12.675L22.0125 14.625C21.8545 15.0996 21.5508 15.5122 21.1445 15.804C20.7382 16.0958 20.2502 16.2519 19.75 16.25H17.8875C17.5735 16.2516 17.2623 16.191 16.9719 16.0716C16.6815 15.9522 16.4176 15.7764 16.1956 15.5544C15.9736 15.3323 15.7978 15.0685 15.6784 14.7781C15.5621 14.4954 15.5016 14.193 15.5 13.8875M15.5 18.5749V19.8249M15.5 19.8249C15.5 20.1385 15.4382 20.4489 15.3183 20.7386C15.1983 21.0283 15.0224 21.2915 14.8007 21.5132C14.579 21.7349 14.3158 21.9107 14.0262 22.0307C13.7365 22.1507 13.426 22.2125 13.1125 22.2125H11.25C10.7487 22.2116 10.2604 22.0529 9.85433 21.759C9.44824 21.4651 9.14497 21.0509 8.9875 20.5749L8.3375 18.6249M15.5 19.8249C15.5 20.4582 15.7515 21.0654 16.1993 21.5132C16.647 21.9609 17.2543 22.2125 17.8875 22.2125H19.75C20.2513 22.2116 20.7396 22.0529 21.1457 21.759C21.5518 21.4651 21.855 21.0509 22.0125 20.5749L22.6625 18.6249M15.5 25.7374V19.7749M3.17738 7.24077C4.2257 9.88376 4.7658 12.7073 4.7625 15.5625C4.95686 19.0677 5.76495 22.5116 7.15 25.7374C7.41952 27.0478 11.1243 29.5027 15.5 28.8397C20.8992 29.6353 23.5494 27.103 23.85 25.7374C25.235 22.5116 26.0431 19.0677 26.2375 15.5625C26.2342 12.7073 26.7743 9.88375 27.8226 7.24076M3.17738 7.24077C3.43591 7.68794 3.75348 8.10339 4.12502 8.47493C5.24249 9.5924 6.75716 10.2216 8.3375 10.225H10.725C11.3521 10.225 11.973 10.1014 12.5523 9.86147C13.1316 9.62151 13.658 9.26979 14.1014 8.82639C14.5448 8.38299 14.8966 7.85659 15.1365 7.27726C15.3765 6.69793 15.5 6.07701 15.5 5.44995C15.5 6.71636 16.0031 7.9309 16.8986 8.82639C17.794 9.72187 19.0086 10.225 20.275 10.225H22.6625C24.2428 10.2216 25.7575 9.5924 26.875 8.47493C27.2465 8.10338 27.5641 7.68793 27.8226 7.24076M3.17738 7.24077C3.00772 6.81304 2.82475 6.39004 2.62863 5.9724M3.17738 7.24077C2.94595 6.84048 2.76182 6.41478 2.62863 5.9724M27.8226 7.24076C27.9923 6.81304 28.1752 6.39004 28.3714 5.97241M27.8226 7.24076C28.0541 6.84048 28.2382 6.41479 28.3714 5.97241M28.625 5.44995C28.5382 5.62313 28.4536 5.7973 28.3714 5.97241M28.3714 5.97241C28.5369 5.4226 28.6238 4.84702 28.625 4.26245M2.375 5.44995C2.46185 5.62313 2.54639 5.79729 2.62863 5.9724M2.62863 5.9724C2.46309 5.42259 2.37622 4.84701 2.375 4.26245" stroke="#F0EEEA" stroke-width="1.5" stroke-miterlimit="10" stroke-linecap="round" stroke-linejoin="round"/>
</svg>
