<svg width="222" height="186" viewBox="0 0 222 186" fill="none" xmlns="http://www.w3.org/2000/svg">
<path d="M49.6652 97.3926C44.8781 85.434 47.3816 70.4112 59.3067 61.8377C69.7331 54.3416 86.4891 57.8331 97.8283 69.7841C100.591 66.4507 107.554 60.2841 113.378 60.2841C121.216 60.2841 130.579 66.836 134.479 68.31C130.953 66.4312 129.161 60.9832 126.841 51.3661C123.94 39.3447 123.976 38.5477 120.641 34.2545C119.176 35.2842 114.547 37.0083 111.121 36.0973C106.839 34.9586 104.232 35.0009 100.678 35.4901C97.3777 35.9444 93.3011 35.7584 91.3487 32.382C87.7044 26.0793 90.7585 25.9949 91.3643 25.0355C89.0544 24.6454 84.7524 21.8341 86.0237 13.71C87.6128 3.55475 88.9711 3.69179 102.143 1.77084C115.315 -0.150121 112.11 -0.285073 120.915 3.75931C129.72 7.8037 133.995 11.7489 148.762 30.168C160.898 45.3047 165.595 47.8984 169.647 59.3293C172.511 67.4105 171.852 72.6126 172.47 74.7815C172.801 75.941 174.891 80.6632 174.593 82.2237C173.772 86.5259 173.74 85.8445 169.44 88.5748C164.29 92.4075 163.878 93.2841 152.878 101.784C139.898 111.814 112.67 117.313 93.5597 110.524C87.724 112.27 59.0528 120.844 49.6652 97.3926Z" fill="#880D1E"/>
<path d="M119.378 56.3191C117.003 55.4597 115.78 54.4729 111.006 54.4729C107.458 54.4729 101.061 58.5296 99.3782 60.4729" stroke="#880D1E" stroke-width="2" stroke-linecap="round" stroke-linejoin="round"/>
<path d="M116.378 49.7037C114.715 49.1308 113.86 48.4729 110.518 48.4729C108.034 48.4729 103.556 51.1774 102.378 52.4729" stroke="#880D1E" stroke-linecap="round" stroke-linejoin="round"/>
<path d="M114.378 44.396C113.191 43.9663 112.579 43.4729 110.192 43.4729C108.418 43.4729 105.219 45.5012 104.378 46.4729" stroke="#880D1E" stroke-width="0.5" stroke-linecap="round" stroke-linejoin="round"/>
<path d="M11.6719 169.902C8.375 169.902 5.85156 168.91 4.10156 166.925C2.36719 164.925 1.5 162.042 1.5 158.277V138.683C1.5 135.152 2.35938 132.472 4.07812 130.644C5.8125 128.816 8.34375 127.902 11.6719 127.902C15 127.902 17.5234 128.816 19.2422 130.644C20.9766 132.472 21.8438 135.152 21.8438 138.683V158.277C21.8438 162.042 20.9688 164.925 19.2188 166.925C17.4844 168.91 14.9688 169.902 11.6719 169.902ZM11.7422 162.308C12.9922 162.308 13.6172 161.097 13.6172 158.675V138.542C13.6172 136.511 13.0078 135.496 11.7891 135.496C10.4141 135.496 9.72656 136.535 9.72656 138.613V158.722C9.72656 160.003 9.88281 160.925 10.1953 161.488C10.5078 162.035 11.0234 162.308 11.7422 162.308ZM28.9688 169.527L23.8828 128.253H31.7344L34.7578 156.332L37.4531 128.253H45.3047L40.2188 169.527H28.9688ZM47.7188 169.527V128.277H64.2188V136.246H56.1094V144.285H63.8906V152.042H56.1094V161.488H64.7578V169.527H47.7188ZM67.5 169.527V128.277H80.1562C82.2656 128.277 83.8594 128.761 84.9375 129.73C86.0156 130.683 86.7344 132.027 87.0938 133.761C87.4688 135.48 87.6562 137.503 87.6562 139.832C87.6562 142.082 87.3672 143.878 86.7891 145.222C86.2266 146.566 85.1562 147.496 83.5781 148.011C84.875 148.277 85.7812 148.925 86.2969 149.957C86.8281 150.972 87.0938 152.292 87.0938 153.917V169.527H78.9609V153.378C78.9609 152.175 78.7109 151.433 78.2109 151.152C77.7266 150.855 76.9375 150.707 75.8438 150.707V169.527H67.5ZM75.8906 143.558H77.8828C79.0234 143.558 79.5938 142.316 79.5938 139.832C79.5938 138.222 79.4688 137.167 79.2188 136.667C78.9688 136.167 78.5 135.917 77.8125 135.917H75.8906V143.558ZM90.375 169.527V128.277H98.625V162.496H107.109V169.527H90.375ZM119.297 169.902C116 169.902 113.477 168.91 111.727 166.925C109.992 164.925 109.125 162.042 109.125 158.277V138.683C109.125 135.152 109.984 132.472 111.703 130.644C113.438 128.816 115.969 127.902 119.297 127.902C122.625 127.902 125.148 128.816 126.867 130.644C128.602 132.472 129.469 135.152 129.469 138.683V158.277C129.469 162.042 128.594 164.925 126.844 166.925C125.109 168.91 122.594 169.902 119.297 169.902ZM119.367 162.308C120.617 162.308 121.242 161.097 121.242 158.675V138.542C121.242 136.511 120.633 135.496 119.414 135.496C118.039 135.496 117.352 136.535 117.352 138.613V158.722C117.352 160.003 117.508 160.925 117.82 161.488C118.133 162.035 118.648 162.308 119.367 162.308ZM131.672 169.527L135.656 128.277H149.648L153.562 169.527H145.758L145.172 162.871H140.203L139.688 169.527H131.672ZM140.789 156.285H144.539L142.734 135.308H142.359L140.789 156.285ZM156.094 169.527V128.277H167.438C170.406 128.277 172.641 129.105 174.141 130.761C175.641 132.402 176.391 134.808 176.391 137.98V157.292C176.391 161.199 175.703 164.214 174.328 166.339C172.969 168.464 170.578 169.527 167.156 169.527H156.094ZM164.391 162.238H165.82C167.336 162.238 168.094 161.503 168.094 160.035V138.753C168.094 137.378 167.906 136.496 167.531 136.105C167.172 135.699 166.43 135.496 165.305 135.496H164.391V162.238ZM179.766 169.527V128.277H196.266V136.246H188.156V144.285H195.938V152.042H188.156V161.488H196.805V169.527H179.766ZM199.547 169.527V128.277H210.891C213.859 128.277 216.094 129.105 217.594 130.761C219.094 132.402 219.844 134.808 219.844 137.98V157.292C219.844 161.199 219.156 164.214 217.781 166.339C216.422 168.464 214.031 169.527 210.609 169.527H199.547ZM207.844 162.238H209.273C210.789 162.238 211.547 161.503 211.547 160.035V138.753C211.547 137.378 211.359 136.496 210.984 136.105C210.625 135.699 209.883 135.496 208.758 135.496H207.844V162.238Z" fill="#4F5152"/>
</svg>
